<?xml version="1.0" encoding="utf-8"?>
<!-- Generator: Adobe Illustrator 27.6.1, SVG Export Plug-In . SVG Version: 6.00 Build 0)  -->
<svg version="1.1" id="Layer_1" xmlns="http://www.w3.org/2000/svg" xmlns:xlink="http://www.w3.org/1999/xlink" x="0px" y="0px"
	 viewBox="0 0 1044.6 322" style="enable-background:new 0 0 1044.6 322;" xml:space="preserve">
<style type="text/css">
	.st0{fill:#4169E1;}
</style>
<g id="Layer_2_00000181781171056282352600000006567644403241596036_">
	<g>
		<path class="st0" d="M37.5-258h31.9c1.5,0,2.9,0,4.4,0.1c1.6,0.1,2.8,0.8,3.7,2.1c0.7,1.1,1.3,2.2,1.9,3.4
			c4.3,8.1,8.5,16.2,12.8,24.3c9.9,19,19.8,38,29.7,57c11,21,22,42.1,33,63.1c1.7,3.2,3.5,6.3,5.2,9.4c0.2,0.4,1,0.3,1.2-0.1
			c0.5-0.8,1.1-1.6,1.5-2.5c6-11.2,12.1-22.5,18-33.8c10-18.8,20-37.6,29.9-56.3c7.2-13.6,14.4-27.2,21.6-40.8
			c3.4-6.5,6.9-13,10.3-19.5c0.7-1.3,1.4-2.6,2.3-3.8c1.1-1.5,2.7-2.4,4.6-2.4c1,0,2,0,2.9,0c21.1,0,42.2,0,63.3-0.1
			c1.6,0,3.3,0.1,4.9,0.2c0.8,0.1,1.2,1.2,0.8,1.9c-0.1,0.1-0.2,0.3-0.3,0.4c-0.3,0.4-0.6,0.8-0.9,1.2c-7,8.8-14.1,17.7-21.1,26.5
			c-1.5,1.9-2.9,3.9-4.4,5.9c-0.9,1.2-1.8,2.4-2.7,3.5c-2.4,2.7-5.5,4.1-9.1,4.1c-0.5,0-1-0.1-1.5,0c-1,0.1-1.9,0.6-2.4,1.5
			c-1.1,2-2.1,4.1-3.3,6c-8.7,15-17.4,30-26.2,45c-8.9,15.3-17.8,30.5-26.7,45.8c-9.7,16.7-19.4,33.4-29.1,50.1
			c-9,15.4-17.9,30.8-26.9,46.2c-1.3,2.3-2.6,4.5-4,6.8c-0.2,0.4-0.6,0.8-0.9,1.2c-0.4,0.6-1.7,0.6-2.2,0.1
			c-0.3-0.4-0.7-0.7-0.9-1.1c-5-9.4-10.6-18.4-15.9-27.6c-7.6-13.2-15.3-26.3-22.9-39.5c-7.4-12.7-14.8-25.4-22.2-38.2
			c-9-15.4-17.9-30.8-26.9-46.3c-8.5-14.7-17.1-29.4-25.6-44.1c-0.8-1.4-1.7-2.8-2.7-4.1c-1.2-1.5-2.7-2.5-4.7-2.2
			c-3.5,0.5-5.8-1.1-7.9-3.8c-9.3-11.8-18.7-23.6-28.1-35.3c-0.7-0.9-1.3-1.8-2-2.8c-0.2-0.4,0.1-1.1,0.5-1.1
			c1.5-0.1,2.9-0.1,4.4-0.1C15.9-258,26.7-258,37.5-258C37.5-257.9,37.5-258,37.5-258L37.5-258L37.5-258z"/>
		<path class="st0" d="M473.5-66.3c0,13.4,0,26.8,0,40.3c0,1.5,0,2.9-0.2,4.4c-0.2,1.6-1.2,2.7-2.6,3.4c-0.7,0.3-1.5,0.5-2.3,0.7
			c-0.5,0.1-1,0.1-1.5,0.1c-10,0-20,0-30,0c-1,0-2-0.1-2.9-0.4c-2.1-0.5-3.3-2-3.7-4.1c-0.1-0.6-0.1-1.3-0.1-1.9c0-1.5,0-2.9,0-4.4
			c0-25.7,0-51.4,0-77.1c0-1.6-0.1-3.3-0.1-4.9c0-0.6-0.7-1.2-1.3-1.2c-1.1-0.1-2.3-0.1-3.4-0.1c-3.9,0-7.8,0-11.8,0
			c-1,0-2,0.1-2.9-0.1c-2.4-0.4-4-1.7-4.4-4c-0.2-1.1-0.4-2.3-0.4-3.4c0-6.4,0-12.8,0-19.1c0-1.3,0.1-2.6,0.6-3.8
			c0.7-1.6,1.9-2.7,3.6-2.9c1.1-0.1,2.3-0.1,3.4-0.2c3.6,0,7.2,0,10.8,0c1.3,0,2.6,0,3.9,0c1.2,0,1.9-0.6,1.9-1.8
			c0-3.3,0.5-6.5,0.9-9.8c1.1-7.5,3.4-14.6,7.5-21.1c3.6-5.6,8.1-10.3,13.7-13.9c6-3.9,12.4-6.5,19.4-8.1c0.3-0.1,0.7-0.1,1,0.1
			c0.3,0.1,0.6,0.4,0.6,0.6c0.1,1.5,0.3,2.9,0.3,4.4c0,14.6,0,29.1,0,43.7c0,1.5,0.1,2.9,0.1,4.4c0,0.6,0.7,1.3,1.3,1.3
			c0.8,0.1,1.6,0.2,2.4,0.2c11.5,0,22.9,0,34.4,0c3.4,0,3.6-0.2,3.7-3.6c0.1-4.9,0.9-9.8,2.1-14.5c1.3-5.3,3.5-10.2,6.4-14.8
			c4.7-7.4,11.1-12.8,18.9-16.7c4.4-2.2,9-3.8,13.8-4.9c1.5-0.3,2,0.2,2.1,1.8c0,0.7,0,1.3,0,2v44.2c0,1.2,0,2.3,0,3.4
			c0,2.7,0.3,3.2,3,3.2c1.2,0,2.3,0,3.4,0c3.4,0,6.9,0,10.3,0c1.1,0,2.3,0,3.4,0.1c2.2,0.2,4,1.9,4.3,4.1c0.1,0.8,0.1,1.6,0.1,2.4
			c0,6.7,0,13.4,0,20.1c0,0.6,0,1.3-0.1,2c-0.2,2.6-2.2,4.5-4.8,4.7c-1.1,0.1-2.3,0.1-3.4,0.1c-4.2,0-8.5,0-12.8,0
			c-0.8,0-1.7,0-2.4,0.2c-0.4,0.1-0.8,0.6-0.9,1c-0.1,1.6-0.2,3.3-0.2,4.9c0,25.7,0,51.4,0,77.1c0,1.5,0,2.9,0,4.4
			c0,0.6,0,1.3-0.1,1.9c-0.4,2.1-1.5,3.6-3.7,4.1c-0.9,0.2-1.9,0.4-2.9,0.4c-10,0-20,0-30,0c-1.2,0-2.3-0.1-3.4-0.5
			c-1.8-0.7-3-2-3.2-4c-0.2-1.6-0.1-3.3-0.1-4.9c0-25.9,0-51.7,0-77.6c0-8.2,1.1-7.1-6.9-7.1c-9.7-0.1-19.3,0-29,0
			c-1.3,0-2.6,0-3.9,0c-1.5,0-2,0.6-2,2.1c0,1.5,0,2.9,0,4.4C473.5-92.1,473.5-79.2,473.5-66.3L473.5-66.3L473.5-66.3z"/>
		<path class="st0" d="M931.5-65.4h13.2c1.1,0,2.3,0,3.4,0.1c1.9,0.2,3.4,1.2,4.2,3c0.4,0.9,0.8,1.8,1,2.8c1.7,6.5,6,10.8,11.9,13.5
			c4.2,1.9,8.6,3,13.3,3.2c3.9,0.1,7.8,0.1,11.7-1c2.1-0.6,4-1.3,5.8-2.5c3.7-2.6,5.3-6.1,4.7-10.6c-0.2-1.5-0.9-2.8-1.9-3.9
			c-1.4-1.6-3.2-2.7-5.2-3.6c-3-1.3-6.2-2.2-9.4-2.8c-4.3-0.8-8.7-1.5-13-2.2c-8.4-1.4-16.8-2.5-25-4.8c-3.5-1-6.9-2.1-10.2-3.6
			c-4.4-1.9-8.4-4.4-11.8-7.8c-3.5-3.4-6-7.4-7.3-12c-2.6-8.8-2.2-17.5,1.4-25.9c2.2-5.1,5.5-9.2,9.8-12.7c3.3-2.7,6.9-4.9,10.8-6.7
			c5.3-2.3,10.7-4,16.4-5c8.2-1.4,16.5-2.1,24.9-1.8c8,0.4,16,1.2,23.7,3.5c4.7,1.4,9.3,3.2,13.6,5.6c10.9,6.2,17.9,15.5,21.1,27.7
			c0.2,0.6,0.2,1.3,0.2,1.9c0.1,2.3-1.5,4.1-3.8,4.4c-1,0.1-2,0.1-2.9,0.1c-9.3,0-18.7,0-28,0c-0.7,0-1.3,0-2,0
			c-2.5,0-4.3-1.3-5.6-3.4c-0.7-1.1-1.2-2.3-1.9-3.4c-2.3-4-5.8-6.6-10.1-8c-2.2-0.7-4.4-1.2-6.7-1.3c-2.6,0-5.2,0-7.8,0
			c-1.8,0-3.6,0.5-5.2,1.2c-1,0.4-2.1,1-3,1.7c-3.6,2.6-3.3,7.8-0.7,10.4c1.9,1.9,4.2,3.2,6.7,4c3,0.9,6,1.8,9,2.4
			c5.6,1.1,11.3,2,16.9,3c6.3,1.1,12.5,2.3,18.7,4.1c5.8,1.7,11.5,3.9,16.6,7.1c3.2,2,6.1,4.5,8.5,7.4c3.1,3.7,5.2,8,6.2,12.6
			c2.1,9.2,1.2,18.2-2.4,26.9c-2.8,6.8-7.4,12.3-13.3,16.6c-5.5,4-11.6,6.8-18.1,8.6c-6,1.7-12.1,2.8-18.3,3.3
			c-5.1,0.4-10.1,0.7-15.2,0.5c-8.8-0.3-17.6-1.3-26.2-3.7c-4.4-1.3-8.7-2.9-12.8-5c-13.8-7.1-22.4-18.2-26.2-33.2
			c-0.4-1.4-0.7-2.9-0.9-4.3c-0.7-4.4,2.1-6.4,5.4-6.5c1.2,0,2.3,0,3.4,0C923.3-65.4,927.4-65.4,931.5-65.4L931.5-65.4L931.5-65.4z"
			/>
		<path class="st0" d="M612.5-84.6c0-19.1,0-38.3,0-57.4c0-1.6,0.1-3.2,0.3-4.9c0-0.2,0.4-0.4,0.7-0.6c0.1-0.1,0.3-0.1,0.5-0.1
			c6.3,1.4,12.2,3.5,17.8,6.9c6.1,3.7,11.2,8.4,15.2,14.4c0.5,0.7,0.9,1.4,1.4,2c0.5,0.8,1.3,0.6,1.9-0.3c1.3-2.1,2.5-4.2,3.9-6.2
			c4.2-5.8,9.4-10.5,16-13.4c7.7-3.4,15.6-4.6,23.9-3.2c1.1,0.2,2.3,0.3,3.4,0.6c2.6,0.7,4.1,2.5,4.6,5.2c0.1,0.8,0.1,1.6,0.1,2.5
			c0,8.8,0,17.7,0,26.5c0,0.8,0,1.6-0.1,2.4c-0.3,2-2,3.5-4.1,3.5c-1.1,0-2.3-0.2-3.4-0.4c-2.2-0.4-4.5-1-6.8-1.2
			c-4.2-0.5-8.5-0.5-12.7,0.4c-7.6,1.7-12.9,6.2-16,13.2c-2.1,4.7-3.2,9.6-3.2,14.8c0,3.8,0,7.5,0,11.3v41.2c0,1.3,0,2.6,0,3.9
			c-0.2,3.7-2.1,5.6-5.9,5.8c-0.5,0-1,0-1.5,0h-28.5c-1.3,0-2.6,0-3.9-0.4c-2.1-0.7-3.3-2.1-3.5-4.3c-0.1-1.6-0.1-3.3-0.1-4.9
			L612.5-84.6L612.5-84.6L612.5-84.6z"/>
		<path class="st0" d="M128.3-189.4c0-1.4,0.1-2.4,0.7-3.2c0.4-0.7,0.9-1.4,1.4-2.1c9.6-14.4,19.2-28.8,28.8-43.3
			c0.6-0.9,1.3-1.9,2-2.8c0.2-0.3,1-0.3,1.3,0.1c0.4,0.5,0.8,1,1.1,1.6c9.5,14.7,19,29.3,28.6,44c0.5,0.8,1.1,1.7,1.5,2.5
			c0.9,1.5,0.8,3.1,0.2,4.7c-0.3,0.8-0.7,1.5-1.1,2.2c-6.4,11.4-12.8,22.8-19.1,34.3c-2.8,5-5.5,10-8.3,15c-1,1.9-2.1,3.6-3.2,5.5
			c-0.2,0.4-1,0.4-1.3,0.1c-1.9-2-3.3-4.5-4.6-6.9c-1.7-3.2-3.4-6.4-5.1-9.5c-6.9-12.4-13.8-24.8-20.8-37.3c-0.5-0.9-1-1.7-1.4-2.6
			C128.6-187.9,128.4-188.9,128.3-189.4z"/>
		<path class="st0" d="M877.1-145.8c0-1.5-0.8-2-2.2-1.8c-1.3,0.2-2.6,0.4-3.9,0.7c-11.7,2.5-21.2,8.4-27.6,18.7
			c-0.5,0.8-1.1,1.6-1.7,2.4c-0.3,0.4-1,0.4-1.3,0.1c-0.9-1-1.7-2-2.6-2.9c-6.7-7.7-14.8-13.3-24.3-16.9c-7.1-2.7-14.5-3.8-22.1-4.1
			c-5.8-0.2-11.4,0.5-17,1.8c-13.9,3.3-25.3,10.4-34,21.8c-8.6,11.3-12.6,24.3-13.7,38.2c-0.5,6.2-0.3,12.4,0.7,18.6
			c1.3,8.7,3.7,16.9,8,24.6c10.7,19,27.1,29.1,48.7,31.1c5.9,0.6,11.8,0.3,17.6-0.7c10-1.7,19.1-5.5,27.2-11.7
			c3.7-2.8,6.9-6,9.8-9.6c0.6-0.8,1.3-1.4,2-2.1c0.2-0.2,0.6-0.2,0.8,0.1c0.9,1.3,1.8,2.7,2.7,4.1c3.5,5.2,8,9.5,13.5,12.6
			c5,2.8,10.5,4.6,16.2,5.4c2.5,0.4,3.1,0.3,3.1-2.8c0-1.3,0-2.6,0-3.9v-119.2C877.1-142.9,877.1-144.4,877.1-145.8L877.1-145.8
			L877.1-145.8z M830.7-65.8c-4.3,9.4-11.4,15.3-21.7,17.2c-8.7,1.6-16.5-0.2-23.6-5.4c-3.5-2.6-6.3-5.8-8.1-9.7
			c-5.8-12.1-5.9-24.3,0.6-36.2c4.5-8.3,11.8-13.1,21.1-14.4c15.5-2.1,27.9,6,32.8,19.8c1.5,4.2,2.3,8.5,2.1,12.8
			C833.9-76,833-70.7,830.7-65.8L830.7-65.8L830.7-65.8z"/>
		<path class="st0" d="M380.8-100.7c-1.3-5.9-3.5-11.6-6.5-16.9c-5.9-10.2-14.2-17.9-24.6-23.4c-11.2-5.9-23.3-8.3-35.9-8.8
			c-6.4-0.2-12.7,0.5-19,1.6c-8.5,1.5-16.5,4.3-23.9,8.4c-15.1,8.5-25.3,20.9-30.3,37.6c-1.9,6.1-2.8,12.4-2.9,18.8
			c-0.2,7.9,0.7,15.7,2.9,23.3c3.7,12.6,10.4,23.2,20.7,31.4c5.5,4.4,11.7,7.8,18.3,10.3c9.6,3.7,19.6,5.2,29.8,5.6
			c4.2,0.2,8.5-0.1,12.7-0.6c7.9-0.8,15.5-2.5,22.8-5.5c16.5-6.9,27.5-18.9,33.8-35.5c0.4-1.1,0.7-2.2,0.9-3.3
			c0.3-2.1-0.8-4.5-3.7-5c-1.3-0.2-2.6-0.2-3.9-0.2c-9.2,0-18.3,0-27.5,0c-1,0-2,0-2.9,0c-1.8,0-3.2,0.9-4.2,2.2
			c-0.8,1.1-1.4,2.2-1.9,3.4c-3.2,6.4-8.4,10.2-15.2,12.2c-3.5,1-7.1,1.2-10.7,1c-9.6-0.5-16.8-4.9-21.5-13.3
			c-2.4-4.2-3.5-8.8-4.1-13.5c-0.1-0.5,0-1,0-1.5c0-0.4,0.5-1.1,0.9-1.1c1.5-0.1,2.9-0.1,4.4-0.1c14.1,0,28.1,0,42.2,0
			s28.1,0,42.2,0c1.5,0,3,0,4.4-0.1c2.2-0.2,3.6-1.4,4.2-3.5c0.2-0.8,0.4-1.6,0.4-2.4C382.8-86.5,382.4-93.6,380.8-100.7
			L380.8-100.7L380.8-100.7z M335.4-96.9c-1.3,0.1-2.6,0.1-3.9,0.1c-7.2,0-14.4,0-21.6,0h-20.6c-1.1,0-2.3,0-3.4-0.1
			c-0.9,0-1.3-0.8-1.2-1.7c0-0.2,0-0.3,0-0.5c0.8-3.4,1.9-6.6,3.7-9.5c3.8-6.3,9.3-9.8,16.5-11.1c5.3-0.9,10.4-0.6,15.4,1.1
			c7.9,2.6,12.8,8.1,15.2,16c0.4,1.4,0.6,2.9,0.9,4.3C336.6-97.7,335.9-96.9,335.4-96.9L335.4-96.9L335.4-96.9z"/>
	</g>
</g>
</svg>
