<?xml version="1.0" encoding="utf-8"?>
<!-- Generator: Adobe Illustrator 27.7.0, SVG Export Plug-In . SVG Version: 6.00 Build 0)  -->
<svg version="1.1" id="Layer_1" xmlns="http://www.w3.org/2000/svg" xmlns:xlink="http://www.w3.org/1999/xlink" x="0px" y="0px"
	 viewBox="0 0 310 75" style="enable-background:new 0 0 310 75;" xml:space="preserve">
<style type="text/css">
	.st0{fill:#4169E1;}
</style>
<g id="Layer_2_00000181781171056282352600000006567644403241596036_">
	<g>
		<path class="st0" d="M15.8,2.1H25c0.4,0,0.8,0,1.3,0c0.5,0,0.8,0.2,1.1,0.6c0.2,0.3,0.4,0.6,0.5,1c1.2,2.3,2.4,4.7,3.7,7
			c2.8,5.5,5.7,10.9,8.5,16.4c3.2,6,6.3,12.1,9.5,18.1c0.5,0.9,1,1.8,1.5,2.7c0.1,0.1,0.3,0.1,0.3,0c0.1-0.2,0.3-0.5,0.4-0.7
			c1.7-3.2,3.5-6.5,5.2-9.7c2.9-5.4,5.7-10.8,8.6-16.2c2.1-3.9,4.1-7.8,6.2-11.7c1-1.9,2-3.7,3-5.6c0.2-0.4,0.4-0.7,0.7-1.1
			c0.3-0.4,0.8-0.7,1.3-0.7c0.3,0,0.6,0,0.8,0c6.1,0,12.1,0,18.2,0c0.5,0,0.9,0,1.4,0.1c0.2,0,0.3,0.3,0.2,0.5c0,0-0.1,0.1-0.1,0.1
			C97.1,2.9,97.1,3,97,3.2c-2,2.5-4,5.1-6.1,7.6c-0.4,0.5-0.8,1.1-1.3,1.7c-0.3,0.3-0.5,0.7-0.8,1c-0.7,0.8-1.6,1.2-2.6,1.2
			c-0.1,0-0.3,0-0.4,0c-0.3,0-0.5,0.2-0.7,0.4c-0.3,0.6-0.6,1.2-0.9,1.7c-2.5,4.3-5,8.6-7.5,12.9c-2.6,4.4-5.1,8.8-7.7,13.1
			c-2.8,4.8-5.6,9.6-8.4,14.4c-2.6,4.4-5.1,8.8-7.7,13.3c-0.4,0.7-0.7,1.3-1.1,2c-0.1,0.1-0.2,0.2-0.3,0.3c-0.1,0.2-0.5,0.2-0.6,0
			c-0.1-0.1-0.2-0.2-0.3-0.3c-1.4-2.7-3-5.3-4.6-7.9c-2.2-3.8-4.4-7.6-6.6-11.3c-2.1-3.6-4.2-7.3-6.4-11c-2.6-4.4-5.1-8.8-7.7-13.3
			c-2.4-4.2-4.9-8.4-7.3-12.7c-0.2-0.4-0.5-0.8-0.8-1.2c-0.3-0.4-0.8-0.7-1.3-0.6c-1,0.1-1.7-0.3-2.3-1.1C11,10,8.3,6.7,5.6,3.3
			C5.4,3,5.2,2.8,5,2.5C5,2.4,5,2.2,5.2,2.2c0.4,0,0.8,0,1.3,0C9.6,2.1,12.7,2.1,15.8,2.1C15.8,2.1,15.8,2.1,15.8,2.1L15.8,2.1
			L15.8,2.1z"/>
		<path class="st0" d="M141,57.1c0,3.8,0,7.7,0,11.6c0,0.4,0,0.8-0.1,1.3c-0.1,0.5-0.3,0.8-0.7,1c-0.2,0.1-0.4,0.1-0.7,0.2
			c-0.1,0-0.3,0-0.4,0c-2.9,0-5.7,0-8.6,0c-0.3,0-0.6,0-0.8-0.1c-0.6-0.1-0.9-0.6-1.1-1.2c0-0.2,0-0.4,0-0.5c0-0.4,0-0.8,0-1.3
			c0-7.4,0-14.8,0-22.1c0-0.5,0-0.9,0-1.4c0-0.2-0.2-0.3-0.4-0.3c-0.3,0-0.7,0-1,0c-1.1,0-2.2,0-3.4,0c-0.3,0-0.6,0-0.8,0
			c-0.7-0.1-1.1-0.5-1.3-1.1c-0.1-0.3-0.1-0.7-0.1-1c0-1.8,0-3.7,0-5.5c0-0.4,0-0.7,0.2-1.1c0.2-0.5,0.5-0.8,1-0.8
			c0.3,0,0.7,0,1-0.1c1,0,2.1,0,3.1,0c0.4,0,0.7,0,1.1,0c0.3,0,0.5-0.2,0.5-0.5c0-0.9,0.1-1.9,0.3-2.8c0.3-2.2,1-4.2,2.2-6.1
			c1-1.6,2.3-3,3.9-4c1.7-1.1,3.6-1.9,5.6-2.3c0.1,0,0.2,0,0.3,0c0.1,0,0.2,0.1,0.2,0.2c0,0.4,0.1,0.8,0.1,1.3c0,4.2,0,8.4,0,12.5
			c0,0.4,0,0.8,0,1.3c0,0.2,0.2,0.4,0.4,0.4c0.2,0,0.5,0.1,0.7,0.1c3.3,0,6.6,0,9.9,0c1,0,1-0.1,1.1-1c0-1.4,0.3-2.8,0.6-4.2
			c0.4-1.5,1-2.9,1.8-4.2c1.3-2.1,3.2-3.7,5.4-4.8c1.3-0.6,2.6-1.1,4-1.4c0.4-0.1,0.6,0.1,0.6,0.5c0,0.2,0,0.4,0,0.6v12.7
			c0,0.3,0,0.7,0,1c0,0.8,0.1,0.9,0.9,0.9c0.3,0,0.7,0,1,0c1,0,2,0,3,0c0.3,0,0.7,0,1,0c0.6,0.1,1.1,0.5,1.2,1.2c0,0.2,0,0.5,0,0.7
			c0,1.9,0,3.8,0,5.8c0,0.2,0,0.4,0,0.6c-0.1,0.7-0.6,1.3-1.4,1.3c-0.3,0-0.7,0-1,0c-1.2,0-2.4,0-3.7,0c-0.2,0-0.5,0-0.7,0.1
			c-0.1,0-0.2,0.2-0.3,0.3c0,0.5-0.1,0.9-0.1,1.4c0,7.4,0,14.8,0,22.1c0,0.4,0,0.8,0,1.3c0,0.2,0,0.4,0,0.5c-0.1,0.6-0.4,1-1.1,1.2
			c-0.3,0.1-0.5,0.1-0.8,0.1c-2.9,0-5.7,0-8.6,0c-0.3,0-0.7,0-1-0.1c-0.5-0.2-0.9-0.6-0.9-1.1c-0.1-0.5,0-0.9,0-1.4
			c0-7.4,0-14.8,0-22.3c0-2.4,0.3-2-2-2c-2.8,0-5.5,0-8.3,0c-0.4,0-0.7,0-1.1,0c-0.4,0-0.6,0.2-0.6,0.6s0,0.8,0,1.3
			C141,49.7,141,53.4,141,57.1L141,57.1L141,57.1z"/>
		<path class="st0" d="M272.5,57.4h3.8c0.3,0,0.7,0,1,0c0.5,0.1,1,0.3,1.2,0.9c0.1,0.3,0.2,0.5,0.3,0.8c0.5,1.9,1.7,3.1,3.4,3.9
			c1.2,0.5,2.5,0.9,3.8,0.9c1.1,0,2.2,0,3.4-0.3c0.6-0.2,1.1-0.4,1.7-0.7c1.1-0.7,1.5-1.8,1.3-3c-0.1-0.4-0.3-0.8-0.5-1.1
			c-0.4-0.5-0.9-0.8-1.5-1c-0.9-0.4-1.8-0.6-2.7-0.8c-1.2-0.2-2.5-0.4-3.7-0.6c-2.4-0.4-4.8-0.7-7.2-1.4c-1-0.3-2-0.6-2.9-1
			c-1.3-0.5-2.4-1.3-3.4-2.2c-1-1-1.7-2.1-2.1-3.4c-0.7-2.5-0.6-5,0.4-7.4c0.6-1.5,1.6-2.6,2.8-3.6c0.9-0.8,2-1.4,3.1-1.9
			c1.5-0.7,3.1-1.1,4.7-1.4c2.4-0.4,4.7-0.6,7.1-0.5c2.3,0.1,4.6,0.3,6.8,1c1.3,0.4,2.7,0.9,3.9,1.6c3.1,1.8,5.1,4.4,6.1,8
			c0.1,0.2,0.1,0.4,0.1,0.5c0,0.7-0.4,1.2-1.1,1.3c-0.3,0-0.6,0-0.8,0c-2.7,0-5.4,0-8,0c-0.2,0-0.4,0-0.6,0c-0.7,0-1.2-0.4-1.6-1
			c-0.2-0.3-0.3-0.7-0.5-1c-0.7-1.1-1.7-1.9-2.9-2.3c-0.6-0.2-1.3-0.3-1.9-0.4c-0.7,0-1.5,0-2.2,0c-0.5,0-1,0.1-1.5,0.3
			c-0.3,0.1-0.6,0.3-0.9,0.5c-1,0.7-0.9,2.2-0.2,3c0.5,0.5,1.2,0.9,1.9,1.1c0.9,0.3,1.7,0.5,2.6,0.7c1.6,0.3,3.2,0.6,4.9,0.9
			c1.8,0.3,3.6,0.7,5.4,1.2c1.7,0.5,3.3,1.1,4.8,2c0.9,0.6,1.8,1.3,2.4,2.1c0.9,1.1,1.5,2.3,1.8,3.6c0.6,2.6,0.3,5.2-0.7,7.7
			c-0.8,2-2.1,3.5-3.8,4.8c-1.6,1.1-3.3,2-5.2,2.5c-1.7,0.5-3.5,0.8-5.3,0.9c-1.5,0.1-2.9,0.2-4.4,0.1c-2.5-0.1-5.1-0.4-7.5-1.1
			c-1.3-0.4-2.5-0.8-3.7-1.4c-4-2-6.4-5.2-7.5-9.5c-0.1-0.4-0.2-0.8-0.3-1.2c-0.2-1.3,0.6-1.8,1.6-1.9c0.3,0,0.7,0,1,0
			C270.1,57.4,271.3,57.4,272.5,57.4L272.5,57.4L272.5,57.4z"/>
		<path class="st0" d="M180.9,51.8c0-5.5,0-11,0-16.5c0-0.5,0-0.9,0.1-1.4c0-0.1,0.1-0.1,0.2-0.2c0,0,0.1,0,0.1,0
			c1.8,0.4,3.5,1,5.1,2c1.8,1.1,3.2,2.4,4.4,4.1c0.1,0.2,0.3,0.4,0.4,0.6c0.1,0.2,0.4,0.2,0.5-0.1c0.4-0.6,0.7-1.2,1.1-1.8
			c1.2-1.7,2.7-3,4.6-3.8c2.2-1,4.5-1.3,6.9-0.9c0.3,0.1,0.7,0.1,1,0.2c0.7,0.2,1.2,0.7,1.3,1.5c0,0.2,0,0.5,0,0.7
			c0,2.5,0,5.1,0,7.6c0,0.2,0,0.5,0,0.7c-0.1,0.6-0.6,1-1.2,1c-0.3,0-0.7-0.1-1-0.1c-0.6-0.1-1.3-0.3-2-0.3
			c-1.2-0.1-2.4-0.1-3.6,0.1c-2.2,0.5-3.7,1.8-4.6,3.8c-0.6,1.3-0.9,2.8-0.9,4.2c0,1.1,0,2.2,0,3.2v11.8c0,0.4,0,0.7,0,1.1
			c-0.1,1.1-0.6,1.6-1.7,1.7c-0.1,0-0.3,0-0.4,0H183c-0.4,0-0.7,0-1.1-0.1c-0.6-0.2-0.9-0.6-1-1.2c0-0.5,0-0.9,0-1.4L180.9,51.8
			L180.9,51.8L180.9,51.8z"/>
		<path class="st0" d="M41.9,21.8c0-0.4,0-0.7,0.2-0.9c0.1-0.2,0.3-0.4,0.4-0.6c2.8-4.1,5.5-8.3,8.3-12.4c0.2-0.3,0.4-0.5,0.6-0.8
			c0.1-0.1,0.3-0.1,0.4,0c0.1,0.1,0.2,0.3,0.3,0.5c2.7,4.2,5.5,8.4,8.2,12.6c0.1,0.2,0.3,0.5,0.4,0.7c0.3,0.4,0.2,0.9,0.1,1.3
			c-0.1,0.2-0.2,0.4-0.3,0.6c-1.8,3.3-3.7,6.5-5.5,9.8c-0.8,1.4-1.6,2.9-2.4,4.3c-0.3,0.5-0.6,1-0.9,1.6c-0.1,0.1-0.3,0.1-0.4,0
			c-0.5-0.6-0.9-1.3-1.3-2c-0.5-0.9-1-1.8-1.5-2.7c-2-3.6-4-7.1-6-10.7c-0.1-0.3-0.3-0.5-0.4-0.7C42,22.2,41.9,21.9,41.9,21.8z"/>
		<path class="st0" d="M256.9,34.3c0-0.4-0.2-0.6-0.6-0.5c-0.4,0.1-0.7,0.1-1.1,0.2c-3.4,0.7-6.1,2.4-7.9,5.4
			c-0.1,0.2-0.3,0.5-0.5,0.7c-0.1,0.1-0.3,0.1-0.4,0c-0.3-0.3-0.5-0.6-0.7-0.8c-1.9-2.2-4.2-3.8-7-4.9c-2-0.8-4.2-1.1-6.3-1.2
			c-1.7-0.1-3.3,0.1-4.9,0.5c-4,0.9-7.3,3-9.8,6.3c-2.5,3.2-3.6,7-3.9,11c-0.1,1.8-0.1,3.6,0.2,5.3c0.4,2.5,1.1,4.9,2.3,7.1
			c3.1,5.5,7.8,8.4,14,8.9c1.7,0.2,3.4,0.1,5.1-0.2c2.9-0.5,5.5-1.6,7.8-3.4c1.1-0.8,2-1.7,2.8-2.8c0.2-0.2,0.4-0.4,0.6-0.6
			c0.1-0.1,0.2-0.1,0.2,0c0.3,0.4,0.5,0.8,0.8,1.2c1,1.5,2.3,2.7,3.9,3.6c1.4,0.8,3,1.3,4.7,1.6c0.7,0.1,0.9,0.1,0.9-0.8
			c0-0.4,0-0.7,0-1.1V35.6C256.9,35.1,256.9,34.7,256.9,34.3L256.9,34.3L256.9,34.3z M243.5,57.2c-1.2,2.7-3.3,4.4-6.2,4.9
			c-2.5,0.5-4.7-0.1-6.8-1.6c-1-0.7-1.8-1.7-2.3-2.8c-1.7-3.5-1.7-7,0.2-10.4c1.3-2.4,3.4-3.8,6.1-4.1c4.4-0.6,8,1.7,9.4,5.7
			c0.4,1.2,0.7,2.4,0.6,3.7C244.4,54.3,244.2,55.8,243.5,57.2L243.5,57.2L243.5,57.2z"/>
		<path class="st0" d="M114.4,47.2c-0.4-1.7-1-3.3-1.9-4.9c-1.7-2.9-4.1-5.1-7.1-6.7c-3.2-1.7-6.7-2.4-10.3-2.5
			c-1.8-0.1-3.6,0.1-5.5,0.5c-2.4,0.4-4.7,1.2-6.9,2.4c-4.3,2.4-7.3,6-8.7,10.8c-0.5,1.8-0.8,3.6-0.8,5.4c-0.1,2.3,0.2,4.5,0.8,6.7
			c1.1,3.6,3,6.7,5.9,9c1.6,1.3,3.4,2.2,5.3,3c2.8,1.1,5.6,1.5,8.6,1.6c1.2,0.1,2.4,0,3.6-0.2c2.3-0.2,4.4-0.7,6.5-1.6
			c4.7-2,7.9-5.4,9.7-10.2c0.1-0.3,0.2-0.6,0.3-0.9c0.1-0.6-0.2-1.3-1.1-1.4c-0.4-0.1-0.7-0.1-1.1-0.1c-2.6,0-5.3,0-7.9,0
			c-0.3,0-0.6,0-0.8,0c-0.5,0-0.9,0.3-1.2,0.6c-0.2,0.3-0.4,0.6-0.5,1c-0.9,1.8-2.4,2.9-4.4,3.5c-1,0.3-2,0.3-3.1,0.3
			c-2.8-0.1-4.8-1.4-6.2-3.8c-0.7-1.2-1-2.5-1.2-3.9c0-0.1,0-0.3,0-0.4c0-0.1,0.1-0.3,0.3-0.3c0.4,0,0.8,0,1.3,0c4,0,8.1,0,12.1,0
			s8.1,0,12.1,0c0.4,0,0.9,0,1.3,0c0.6-0.1,1-0.4,1.2-1c0.1-0.2,0.1-0.5,0.1-0.7C114.9,51.3,114.8,49.3,114.4,47.2L114.4,47.2
			L114.4,47.2z M101.3,48.3c-0.4,0-0.7,0-1.1,0c-2.1,0-4.1,0-6.2,0h-5.9c-0.3,0-0.7,0-1,0c-0.3,0-0.4-0.2-0.3-0.5c0-0.1,0-0.1,0-0.1
			c0.2-1,0.5-1.9,1.1-2.7c1.1-1.8,2.7-2.8,4.7-3.2c1.5-0.3,3-0.2,4.4,0.3c2.3,0.7,3.7,2.3,4.4,4.6c0.1,0.4,0.2,0.8,0.3,1.2
			C101.7,48.1,101.5,48.3,101.3,48.3L101.3,48.3L101.3,48.3z"/>
	</g>
</g>
</svg>
