<?xml version="1.0" encoding="UTF-8"?>
<svg id="Layer_2" data-name="Layer 2" xmlns="http://www.w3.org/2000/svg" viewBox="0 0 300 70.87">
  <defs>
    <style>
      .cls-1 {
        fill: #4169e1;
      }
    </style>
  </defs>
  <g id="Layer_1-2" data-name="Layer 1">
    <g id="Layer_2-2" data-name="Layer 2">
      <g>
        <path class="cls-1" d="m10.81,0h9.16c.43,0,.83,0,1.26.03.46.03.8.23,1.06.6.2.32.37.63.55.98,1.23,2.33,2.44,4.65,3.67,6.98,2.84,5.45,5.68,10.91,8.53,16.36,3.16,6.03,6.32,12.09,9.47,18.12.49.92,1,1.81,1.49,2.7.06.11.29.09.34-.03.14-.23.32-.46.43-.72,1.72-3.22,3.47-6.46,5.17-9.7,2.87-5.4,5.74-10.79,8.58-16.16,2.07-3.9,4.13-7.81,6.2-11.71.98-1.87,1.98-3.73,2.96-5.6.2-.37.4-.75.66-1.09.32-.43.78-.69,1.32-.69h.83c6.06,0,12.12,0,18.17-.03.46,0,.95.03,1.41.06.23.03.34.34.23.55-.03.03-.06.09-.09.11-.09.11-.17.23-.26.34-2.01,2.53-4.05,5.08-6.06,7.61-.43.55-.83,1.12-1.26,1.69-.26.34-.52.69-.78,1-.69.78-1.58,1.18-2.61,1.18-.14,0-.29-.03-.43,0-.29.03-.55.17-.69.43-.32.57-.6,1.18-.95,1.72-2.5,4.31-5,8.61-7.52,12.92-2.56,4.39-5.11,8.76-7.67,13.15-2.78,4.79-5.57,9.59-8.35,14.38-2.58,4.42-5.14,8.84-7.72,13.26-.37.66-.75,1.29-1.15,1.95-.06.11-.17.23-.26.34-.11.17-.49.17-.63.03-.09-.11-.2-.2-.26-.32-1.44-2.7-3.04-5.28-4.56-7.92-2.18-3.79-4.39-7.55-6.57-11.34-2.12-3.65-4.25-7.29-6.37-10.97-2.58-4.42-5.14-8.84-7.72-13.29-2.44-4.22-4.91-8.44-7.35-12.66-.23-.4-.49-.8-.78-1.18-.34-.43-.78-.72-1.35-.63-1,.14-1.67-.32-2.27-1.09C5.99,7.98,3.29,4.59.59,1.23.39.98.22.72.02.43-.04.32.05.11.16.11c.43-.03.83-.03,1.26-.03,3.19-.09,6.29-.09,9.39-.09,0,.03,0,0,0,0h0Z"/>
        <path class="cls-1" d="m135.98,55.03v11.57c0,.43,0,.83-.06,1.26-.06.46-.34.78-.75.98-.2.09-.43.14-.66.2-.14.03-.29.03-.43.03h-8.61c-.29,0-.57-.03-.83-.11-.6-.14-.95-.57-1.06-1.18-.03-.17-.03-.37-.03-.55v-23.4c0-.46-.03-.95-.03-1.41,0-.17-.2-.34-.37-.34-.32-.03-.66-.03-.98-.03h-3.39c-.29,0-.57.03-.83-.03-.69-.11-1.15-.49-1.26-1.15-.06-.32-.11-.66-.11-.98v-5.48c0-.37.03-.75.17-1.09.2-.46.55-.78,1.03-.83.32-.03.66-.03.98-.06h4.22c.34,0,.55-.17.55-.52,0-.95.14-1.87.26-2.81.32-2.15.98-4.19,2.15-6.06,1.03-1.61,2.33-2.96,3.93-3.99,1.72-1.12,3.56-1.87,5.57-2.33.09-.03.2-.03.29.03.09.03.17.11.17.17.03.43.09.83.09,1.26v12.55c0,.43.03.83.03,1.26,0,.17.2.37.37.37.23.03.46.06.69.06h9.88c.98,0,1.03-.06,1.06-1.03.03-1.41.26-2.81.6-4.16.37-1.52,1-2.93,1.84-4.25,1.35-2.12,3.19-3.67,5.43-4.79,1.26-.63,2.58-1.09,3.96-1.41.43-.09.57.06.6.52v14.24c0,.78.09.92.86.92h3.93c.32,0,.66,0,.98.03.63.06,1.15.55,1.23,1.18.03.23.03.46.03.69v5.77c0,.17,0,.37-.03.57-.06.75-.63,1.29-1.38,1.35-.32.03-.66.03-.98.03h-3.67c-.23,0-.49,0-.69.06-.11.03-.23.17-.26.29-.03.46-.06.95-.06,1.41v23.4c0,.17,0,.37-.03.55-.11.6-.43,1.03-1.06,1.18-.26.06-.55.11-.83.11h-8.61c-.34,0-.66-.03-.98-.14-.52-.2-.86-.57-.92-1.15-.06-.46-.03-.95-.03-1.41v-22.28c0-2.35.32-2.04-1.98-2.04-2.78-.03-5.54,0-8.33,0h-1.12c-.43,0-.57.17-.57.6v1.26c.03,3.7.03,7.41.03,11.11h0Z"/>
        <path class="cls-1" d="m267.47,55.29h3.79c.32,0,.66,0,.98.03.55.06.98.34,1.21.86.11.26.23.52.29.8.49,1.87,1.72,3.1,3.42,3.88,1.21.55,2.47.86,3.82.92,1.12.03,2.24.03,3.36-.29.6-.17,1.15-.37,1.67-.72,1.06-.75,1.52-1.75,1.35-3.04-.06-.43-.26-.8-.55-1.12-.4-.46-.92-.78-1.49-1.03-.86-.37-1.78-.63-2.7-.8-1.23-.23-2.5-.43-3.73-.63-2.41-.4-4.82-.72-7.18-1.38-1-.29-1.98-.6-2.93-1.03-1.26-.55-2.41-1.26-3.39-2.24-1-.98-1.72-2.12-2.1-3.45-.75-2.53-.63-5.02.4-7.44.63-1.46,1.58-2.64,2.81-3.65.95-.78,1.98-1.41,3.1-1.92,1.52-.66,3.07-1.15,4.71-1.44,2.35-.4,4.74-.6,7.15-.52,2.3.11,4.59.34,6.8,1,1.35.4,2.67.92,3.9,1.61,3.13,1.78,5.14,4.45,6.06,7.95.06.17.06.37.06.55.03.66-.43,1.18-1.09,1.26-.29.03-.57.03-.83.03h-8.61c-.72,0-1.23-.37-1.61-.98-.2-.32-.34-.66-.55-.98-.66-1.15-1.67-1.89-2.9-2.3-.63-.2-1.26-.34-1.92-.37h-2.24c-.52,0-1.03.14-1.49.34-.29.11-.6.29-.86.49-1.03.75-.95,2.24-.2,2.99.55.55,1.21.92,1.92,1.15.86.26,1.72.52,2.58.69,1.61.32,3.24.57,4.85.86,1.81.32,3.59.66,5.37,1.18,1.67.49,3.3,1.12,4.77,2.04.92.57,1.75,1.29,2.44,2.12.89,1.06,1.49,2.3,1.78,3.62.6,2.64.34,5.22-.69,7.72-.8,1.95-2.12,3.53-3.82,4.77-1.58,1.15-3.33,1.95-5.2,2.47-1.72.49-3.47.8-5.25.95-1.46.11-2.9.2-4.36.14-2.53-.09-5.05-.37-7.52-1.06-1.26-.37-2.5-.83-3.67-1.44-3.96-2.04-6.43-5.22-7.52-9.53-.11-.4-.2-.83-.26-1.23-.2-1.26.6-1.84,1.55-1.87h.98c1.21.03,2.38.03,3.56.03h0Z"/>
        <path class="cls-1" d="m175.89,49.78v-16.48c0-.46.03-.92.09-1.41,0-.06.11-.11.2-.17.03-.03.09-.03.14-.03,1.81.4,3.5,1,5.11,1.98,1.75,1.06,3.22,2.41,4.36,4.13.14.2.26.4.4.57.14.23.37.17.55-.09.37-.6.72-1.21,1.12-1.78,1.21-1.67,2.7-3.01,4.59-3.85,2.21-.98,4.48-1.32,6.86-.92.32.06.66.09.98.17.75.2,1.18.72,1.32,1.49.03.23.03.46.03.72v7.61c0,.23,0,.46-.03.69-.09.57-.57,1-1.18,1-.32,0-.66-.06-.98-.11-.63-.11-1.29-.29-1.95-.34-1.21-.14-2.44-.14-3.65.11-2.18.49-3.7,1.78-4.59,3.79-.6,1.35-.92,2.76-.92,4.25v16.19c-.06,1.06-.6,1.61-1.69,1.67h-8.61c-.37,0-.75,0-1.12-.11-.6-.2-.95-.6-1-1.23-.03-.46-.03-.95-.03-1.41v-16.45h0Z"/>
        <path class="cls-1" d="m36.88,19.69c0-.4.03-.69.2-.92.11-.2.26-.4.4-.6,2.76-4.13,5.51-8.27,8.27-12.43.17-.26.37-.55.57-.8.06-.09.29-.09.37.03.11.14.23.29.32.46,2.73,4.22,5.45,8.41,8.21,12.63.14.23.32.49.43.72.26.43.23.89.06,1.35-.09.23-.2.43-.32.63-1.84,3.27-3.67,6.55-5.48,9.85-.8,1.44-1.58,2.87-2.38,4.31-.29.55-.6,1.03-.92,1.58-.06.11-.29.11-.37.03-.55-.57-.95-1.29-1.32-1.98-.49-.92-.98-1.84-1.46-2.73-1.98-3.56-3.96-7.12-5.97-10.71-.14-.26-.29-.49-.4-.75-.11-.23-.17-.52-.2-.66Z"/>
        <path class="cls-1" d="m251.85,32.21c0-.43-.23-.57-.63-.52-.37.06-.75.11-1.12.2-3.36.72-6.09,2.41-7.92,5.37-.14.23-.32.46-.49.69-.09.11-.29.11-.37.03-.26-.29-.49-.57-.75-.83-1.92-2.21-4.25-3.82-6.98-4.85-2.04-.78-4.16-1.09-6.34-1.18-1.67-.06-3.27.14-4.88.52-3.99.95-7.26,2.99-9.76,6.26-2.47,3.24-3.62,6.98-3.93,10.97-.14,1.78-.09,3.56.2,5.34.37,2.5,1.06,4.85,2.3,7.06,3.07,5.45,7.78,8.35,13.98,8.93,1.69.17,3.39.09,5.05-.2,2.87-.49,5.48-1.58,7.81-3.36,1.06-.8,1.98-1.72,2.81-2.76.17-.23.37-.4.57-.6.06-.06.17-.06.23.03.26.37.52.78.78,1.18,1,1.49,2.3,2.73,3.88,3.62,1.44.8,3.01,1.32,4.65,1.55.72.11.89.09.89-.8v-35.34c.03-.46.03-.89.03-1.29h0Zm-13.32,22.97c-1.23,2.7-3.27,4.39-6.23,4.94-2.5.46-4.74-.06-6.78-1.55-1-.75-1.81-1.67-2.33-2.78-1.67-3.47-1.69-6.98.17-10.39,1.29-2.38,3.39-3.76,6.06-4.13,4.45-.6,8.01,1.72,9.42,5.68.43,1.21.66,2.44.6,3.67,0,1.64-.26,3.16-.92,4.56h0Z"/>
        <path class="cls-1" d="m109.37,45.16c-.37-1.69-1-3.33-1.87-4.85-1.69-2.93-4.08-5.14-7.06-6.72-3.22-1.69-6.69-2.38-10.31-2.53-1.84-.06-3.65.14-5.45.46-2.44.43-4.74,1.23-6.86,2.41-4.34,2.44-7.26,6-8.7,10.79-.55,1.75-.8,3.56-.83,5.4-.06,2.27.2,4.51.83,6.69,1.06,3.62,2.99,6.66,5.94,9.01,1.58,1.26,3.36,2.24,5.25,2.96,2.76,1.06,5.63,1.49,8.56,1.61,1.21.06,2.44-.03,3.65-.17,2.27-.23,4.45-.72,6.55-1.58,4.74-1.98,7.89-5.43,9.7-10.19.11-.32.2-.63.26-.95.09-.6-.23-1.29-1.06-1.44-.37-.06-.75-.06-1.12-.06h-8.73c-.52,0-.92.26-1.21.63-.23.32-.4.63-.55.98-.92,1.84-2.41,2.93-4.36,3.5-1,.29-2.04.34-3.07.29-2.76-.14-4.82-1.41-6.17-3.82-.69-1.21-1-2.53-1.18-3.88-.03-.14,0-.29,0-.43,0-.11.14-.32.26-.32.43-.03.83-.03,1.26-.03h24.23c.43,0,.86,0,1.26-.03.63-.06,1.03-.4,1.21-1,.06-.23.11-.46.11-.69.03-1.98-.09-4.02-.55-6.06h0Zm-13.03,1.09c-.37.03-.75.03-1.12.03h-12.12c-.32,0-.66,0-.98-.03-.26,0-.37-.23-.34-.49v-.14c.23-.98.55-1.89,1.06-2.73,1.09-1.81,2.67-2.81,4.74-3.19,1.52-.26,2.99-.17,4.42.32,2.27.75,3.67,2.33,4.36,4.59.11.4.17.83.26,1.23.06.17-.14.4-.29.4h0Z"/>
      </g>
    </g>
  </g>
</svg>